<svg xmlns="http://www.w3.org/2000/svg" width="19.535" height="20.311" viewBox="0 0 19.535 20.311">
  <path id="Icon_cog" data-name="Icon cog" d="M19.081,12.23,17.466,11.3a7.3,7.3,0,0,0,0-2.661L19.081,7.7a.458.458,0,0,0,.208-.531,9.442,9.442,0,0,0-2.074-3.586.456.456,0,0,0-.561-.087l-1.615.933a7.154,7.154,0,0,0-2.3-1.331V1.24A.454.454,0,0,0,12.379.8a9.53,9.53,0,0,0-4.14,0,.454.454,0,0,0-.356.444V3.106a7.38,7.38,0,0,0-2.3,1.331L3.967,3.5a.45.45,0,0,0-.561.087A9.385,9.385,0,0,0,1.332,7.177a.453.453,0,0,0,.208.531l1.615.933a7.3,7.3,0,0,0,0,2.661l-1.615.933a.458.458,0,0,0-.208.531,9.442,9.442,0,0,0,2.074,3.586.456.456,0,0,0,.561.087l1.615-.933a7.154,7.154,0,0,0,2.3,1.331V18.7a.454.454,0,0,0,.356.444,9.53,9.53,0,0,0,4.14,0,.454.454,0,0,0,.356-.444V16.836a7.38,7.38,0,0,0,2.3-1.331l1.615.933a.45.45,0,0,0,.561-.087,9.385,9.385,0,0,0,2.074-3.586.468.468,0,0,0-.212-.535ZM10.309,13a3.033,3.033,0,1,1,3.033-3.033A3.037,3.037,0,0,1,10.309,13Z" transform="translate(-0.541 0.185)" fill="none" stroke="#c4c4c4" stroke-linecap="round" stroke-width="1.5"/>
</svg>
