<svg xmlns="http://www.w3.org/2000/svg" width="15.75" height="18" viewBox="0 0 15.75 18">
  <path id="Icon_calendar" data-name="Icon calendar" d="M.422,6.75H15.328a.423.423,0,0,1,.422.422v9.141A1.688,1.688,0,0,1,14.063,18H1.688A1.688,1.688,0,0,1,0,16.313V7.172A.423.423,0,0,1,.422,6.75ZM15.75,5.2V3.937A1.688,1.688,0,0,0,14.063,2.25H12.375V.422A.423.423,0,0,0,11.953,0H10.547a.423.423,0,0,0-.422.422V2.25h-4.5V.422A.423.423,0,0,0,5.2,0H3.8a.423.423,0,0,0-.422.422V2.25H1.688A1.688,1.688,0,0,0,0,3.937V5.2a.423.423,0,0,0,.422.422H15.328A.423.423,0,0,0,15.75,5.2Z" fill="#24375b"/>
</svg>
