<svg id="rps-logo" xmlns="http://www.w3.org/2000/svg" width="40" height="27.132" viewBox="0 0 40 27.132">
  <path id="Path" d="M0,0,2.7,4.518h8.918S15.9,4.772,15.9,8.67a4.554,4.554,0,0,1-3.8,4.884H7.955l7.526,13.578H20.4l-5.323-9.969A8.381,8.381,0,0,0,20.4,8.676s0-5.983-5.044-7.82A7.388,7.388,0,0,0,12.24.012H0Z" transform="translate(0)"/>
  <path id="Path-2" data-name="Path" d="M0,0,2.987,4.111H8.98L6.672,0Z" transform="translate(19.592 23.021)" fill="#85ba29"/>
  <path id="Path-3" data-name="Path" d="M18.776,0,14.9,4.447H7.147A4.008,4.008,0,0,0,4.377,8.67s-.071,2.132,2.7,2.693h3.6s6.917.354,7.54,7.483c0,0,.276,8.174-8.305,8.286L7.63,22.655h3.458A3.175,3.175,0,0,0,13.717,19.2a3.664,3.664,0,0,0-2.906-3.319L6.865,15.81S.43,14.753.013,8.327c0,0-.623-6.7,6.852-8.327H18.776Z" transform="translate(21.224)"/>
</svg>
